<svg width="350" height="350" viewBox="0 0 64 64" fill="none" xmlns="http://www.w3.org/2000/svg">
<path d="M42.6667 60.6666H21.3333C11.6 60.6666 6 55.0666 6 45.3333V18.6666C6 8.93331 11.6 3.33331 21.3333 3.33331H42.6667C52.4 3.33331 58 8.93331 58 18.6666V45.3333C58 55.0666 52.4 60.6666 42.6667 60.6666ZM21.3333 7.33331C13.7067 7.33331 10 11.04 10 18.6666V45.3333C10 52.96 13.7067 56.6666 21.3333 56.6666H42.6667C50.2933 56.6666 54 52.96 54 45.3333V18.6666C54 11.04 50.2933 7.33331 42.6667 7.33331H21.3333Z" fill="#288EBA"/>
<path d="M24.0001 29.6266C23.564 29.6288 23.1318 29.5449 22.7281 29.3798C22.3245 29.2147 21.9574 28.9716 21.6478 28.6645C21.3382 28.3573 21.0922 27.9922 20.9239 27.5899C20.7555 27.1876 20.6681 26.7561 20.6667 26.32V5.33331C20.6667 4.23998 21.5734 3.33331 22.6667 3.33331H41.3334C42.4267 3.33331 43.3334 4.23998 43.3334 5.33331V26.2933C43.3334 27.6266 42.5601 28.8266 41.3334 29.3333C40.1334 29.8666 38.7201 29.6266 37.7334 28.72L32.0001 23.4666L26.2667 28.7466C25.6267 29.3333 24.8267 29.6266 24.0001 29.6266ZM32.0001 19.2266C32.8001 19.2266 33.6267 19.52 34.2667 20.1066L39.3334 24.7733V7.33331H24.6667V24.7733L29.7334 20.1066C30.3734 19.52 31.2001 19.2266 32.0001 19.2266ZM46.6667 39.3333H35.3334C34.2401 39.3333 33.3334 38.4266 33.3334 37.3333C33.3334 36.24 34.2401 35.3333 35.3334 35.3333H46.6667C47.7601 35.3333 48.6667 36.24 48.6667 37.3333C48.6667 38.4266 47.7601 39.3333 46.6667 39.3333ZM46.6667 50H24.0001C22.9067 50 22.0001 49.0933 22.0001 48C22.0001 46.9066 22.9067 46 24.0001 46H46.6667C47.7601 46 48.6667 46.9066 48.6667 48C48.6667 49.0933 47.7601 50 46.6667 50Z" fill="#288EBA"/>
</svg>
