<svg xmlns="http://www.w3.org/2000/svg" width="200" height="200" viewBox="0 0 64 64" fill="none">
<path d="M33.3387 39.3333H26.672C25.5787 39.3333 24.672 38.4267 24.672 37.3333C24.672 36.24 25.5787 35.3333 26.672 35.3333H33.3387C40.3253 35.3333 46.0053 29.6533 46.0053 22.6667C46.0053 15.68 40.3253 10 33.3387 10H20.0053C13.0187 10 7.33868 15.68 7.33868 22.6667C7.33868 25.6 8.37868 28.4533 10.2453 30.72C10.9387 31.5733 10.832 32.8267 9.97868 33.5467C9.12535 34.24 7.87201 34.1333 7.15201 33.28C4.67386 30.2981 3.31558 26.5439 3.31201 22.6667C3.31201 13.4667 10.7787 6 19.9787 6H33.312C42.512 6 49.9787 13.4667 49.9787 22.6667C49.9787 31.8667 42.5387 39.3333 33.3387 39.3333Z" fill="#228EBA"/>
<path d="M44 58H30.6667C21.4667 58 14 50.5334 14 41.3334C14 32.1334 21.4667 24.6667 30.6667 24.6667H37.3333C38.4267 24.6667 39.3333 25.5734 39.3333 26.6667C39.3333 27.76 38.4267 28.6667 37.3333 28.6667H30.6667C23.68 28.6667 18 34.3467 18 41.3334C18 48.32 23.68 54 30.6667 54H44C50.9867 54 56.6667 48.32 56.6667 41.3334C56.6667 38.4 55.6267 35.5467 53.76 33.28C53.424 32.8684 53.2636 32.341 53.3135 31.812C53.3634 31.283 53.6196 30.7949 54.0267 30.4534C54.2294 30.2843 54.4635 30.157 54.7156 30.0789C54.9677 30.0008 55.2328 29.9733 55.4955 29.9981C55.7583 30.0229 56.0135 30.0994 56.2466 30.2233C56.4796 30.3472 56.6858 30.516 56.8533 30.72C59.3315 33.702 60.6898 37.4561 60.6933 41.3334C60.6667 50.5334 53.2 58 44 58Z" fill="#228EBA"/>
</svg>