<svg xmlns="http://www.w3.org/2000/svg" width="350" height="350" viewBox="0 0 64 64" fill="none">
<path d="M40 60.664H24C20.48 60.664 17.5466 60.3173 15.0666 59.5707C14.6281 59.4357 14.2477 59.1573 13.9865 58.78C13.7253 58.4028 13.5986 57.9486 13.6266 57.4907C14.2933 49.5173 22.3733 43.2507 32 43.2507C41.6266 43.2507 49.68 49.4907 50.3733 57.4907C50.4533 58.4507 49.8666 59.304 48.9333 59.5707C46.4533 60.3173 43.52 60.664 40 60.664ZM17.92 56.1573C19.68 56.504 21.68 56.664 24 56.664H40C42.32 56.664 44.32 56.504 46.08 56.1573C44.6666 51.0373 38.8266 47.2507 32 47.2507C25.1733 47.2507 19.3333 51.0373 17.92 56.1573Z" fill="#288EBA"/>
<path d="M39.9999 5.33331H23.9999C10.6666 5.33331 5.33325 10.6666 5.33325 24V40C5.33325 50.08 8.37325 55.6 15.6266 57.6533C16.2133 50.72 23.3333 45.2533 31.9999 45.2533C40.6666 45.2533 47.7866 50.72 48.3732 57.6533C55.6266 55.6 58.6666 50.08 58.6666 40V24C58.6666 10.6666 53.3332 5.33331 39.9999 5.33331ZM31.9999 37.7866C26.7199 37.7866 22.4533 33.4933 22.4533 28.2133C22.4533 22.9333 26.7199 18.6666 31.9999 18.6666C37.2799 18.6666 41.5466 22.9333 41.5466 28.2133C41.5466 33.4933 37.2799 37.7866 31.9999 37.7866Z" stroke="#288EBA" stroke-width="4" stroke-linecap="round" stroke-linejoin="round"/>
<path d="M32.0054 39.7867C28.9406 39.7796 26.0037 38.5572 23.8391 36.3875C21.6744 34.2179 20.4587 31.2782 20.4587 28.2134C20.4587 21.84 25.6321 16.6667 32.0054 16.6667C38.3787 16.6667 43.5521 21.84 43.5521 28.2134C43.5521 31.2782 42.3364 34.2179 40.1718 36.3875C38.0071 38.5572 35.0702 39.7796 32.0054 39.7867ZM32.0054 20.6667C30.0351 20.719 28.1631 21.5385 26.7881 22.9506C25.413 24.3626 24.6436 26.2557 24.6436 28.2267C24.6436 30.1977 25.413 32.0908 26.7881 33.5028C28.1631 34.9149 30.0351 35.7344 32.0054 35.7867C33.9757 35.7344 35.8477 34.9149 37.2227 33.5028C38.5978 32.0908 39.3673 30.1977 39.3673 28.2267C39.3673 26.2557 38.5978 24.3626 37.2227 22.9506C35.8477 21.5385 33.9757 20.719 32.0054 20.6667Z" fill="#288EBA"/>
</svg>