<svg width="350" height="350" viewBox="0 0 64 64" fill="none" xmlns="http://www.w3.org/2000/svg">
<path d="M39.9999 60.6666H23.9999C9.51992 60.6666 3.33325 54.48 3.33325 40V24C3.33325 9.51998 9.51992 3.33331 23.9999 3.33331H39.9999C54.4799 3.33331 60.6666 9.51998 60.6666 24V40C60.6666 54.48 54.4799 60.6666 39.9999 60.6666ZM23.9999 7.33331C11.7066 7.33331 7.33325 11.7066 7.33325 24V40C7.33325 52.2933 11.7066 56.6666 23.9999 56.6666H39.9999C52.2932 56.6666 56.6666 52.2933 56.6666 40V24C56.6666 11.7066 52.2932 7.33331 39.9999 7.33331H23.9999Z" fill="#228EBA"/>
<path d="M32.0001 43.3333C28.9965 43.3263 26.1179 42.13 23.994 40.0061C21.8701 37.8822 20.6738 35.0036 20.6667 32C20.6738 28.9964 21.8701 26.1178 23.994 23.9939C26.1179 21.87 28.9965 20.6737 32.0001 20.6667C35.0037 20.6737 37.8823 21.87 40.0062 23.9939C42.1301 26.1178 43.3264 28.9964 43.3334 32C43.3264 35.0036 42.1301 37.8822 40.0062 40.0061C37.8823 42.13 35.0037 43.3263 32.0001 43.3333ZM32.0001 24.6667C27.9467 24.6667 24.6667 27.9467 24.6667 32C24.6667 36.0533 27.9467 39.3333 32.0001 39.3333C36.0534 39.3333 39.3334 36.0533 39.3334 32C39.3334 27.9467 36.0534 24.6667 32.0001 24.6667ZM45.3334 20C44.9867 20 44.6401 19.92 44.3201 19.7867C44.0001 19.6533 43.7068 19.4667 43.4401 19.2267C43.2001 18.96 42.9867 18.6667 42.8534 18.3467C42.725 18.0245 42.6615 17.6801 42.6667 17.3333C42.6667 16.9867 42.7201 16.64 42.8534 16.32C43.0134 15.9733 43.2001 15.7067 43.4401 15.44C43.5734 15.3333 43.7068 15.2 43.8401 15.12C44.0001 15.0133 44.1601 14.9333 44.3201 14.88C44.8061 14.6779 45.3408 14.6232 45.8576 14.7228C46.3745 14.8224 46.8506 15.0718 47.2267 15.44C47.4667 15.7067 47.6534 15.9733 47.7867 16.32C47.9201 16.64 48.0001 16.9867 48.0001 17.3333C48.0001 17.68 47.9201 18.0267 47.7867 18.3467C47.6534 18.6667 47.4667 18.96 47.2267 19.2267C46.9601 19.4667 46.6667 19.6533 46.3467 19.7867C46.0267 19.92 45.6801 20 45.3334 20Z" fill="#228EBA"/>
</svg>
