<svg xmlns="http://www.w3.org/2000/svg" width="350" height="350" viewBox="0 0 64 64" fill="none">
<path d="M39.9999 60.6667H23.9999C9.51992 60.6667 3.33325 54.48 3.33325 40V24C3.33325 9.52001 9.51992 3.33334 23.9999 3.33334H39.9999C54.4799 3.33334 60.6666 9.52001 60.6666 24V40C60.6666 54.48 54.4799 60.6667 39.9999 60.6667ZM23.9999 7.33334C11.7066 7.33334 7.33325 11.7067 7.33325 24V40C7.33325 52.2933 11.7066 56.6667 23.9999 56.6667H39.9999C52.2932 56.6667 56.6666 52.2933 56.6666 40V24C56.6666 11.7067 52.2932 7.33334 39.9999 7.33334H23.9999Z" fill="#288EBA"/>
<path d="M32.0001 34.6667C30.5067 34.6667 29.3334 33.4667 29.3334 32C29.3334 30.5333 30.5334 29.3333 32.0001 29.3333C33.4667 29.3333 34.6667 30.5333 34.6667 32C34.6667 33.4667 33.4934 34.6667 32.0001 34.6667ZM42.6667 34.6667C41.1734 34.6667 40.0001 33.4667 40.0001 32C40.0001 30.5333 41.2001 29.3333 42.6667 29.3333C44.1334 29.3333 45.3334 30.5333 45.3334 32C45.3334 33.4667 44.1601 34.6667 42.6667 34.6667ZM21.3334 34.6667C19.8401 34.6667 18.6667 33.4667 18.6667 32C18.6667 30.5333 19.8667 29.3333 21.3334 29.3333C22.8001 29.3333 24.0001 30.5333 24.0001 32C24.0001 33.4667 22.8267 34.6667 21.3334 34.6667Z" fill="#288EBA"/>
</svg>