<svg width="350" height="350" viewBox="0 0 64 64" fill="none" xmlns="http://www.w3.org/2000/svg">
<path d="M39.9999 60.6666H23.9999C9.51992 60.6666 3.33325 54.48 3.33325 40V24C3.33325 9.51998 9.51992 3.33331 23.9999 3.33331H39.9999C54.4799 3.33331 60.6666 9.51998 60.6666 24V40C60.6666 54.48 54.4799 60.6666 39.9999 60.6666ZM23.9999 7.33331C11.7066 7.33331 7.33325 11.7066 7.33325 24V40C7.33325 52.2933 11.7066 56.6666 23.9999 56.6666H39.9999C52.2932 56.6666 56.6666 52.2933 56.6666 40V24C56.6666 11.7066 52.2932 7.33331 39.9999 7.33331H23.9999Z" fill="#228EBA"/>
<path d="M57.28 20.96H6.71997C6.18954 20.96 5.68083 20.7493 5.30576 20.3742C4.93068 19.9992 4.71997 19.4905 4.71997 18.96C4.71997 18.4296 4.93068 17.9209 5.30576 17.5458C5.68083 17.1707 6.18954 16.96 6.71997 16.96H57.28C57.8104 16.96 58.3191 17.1707 58.6942 17.5458C59.0693 17.9209 59.28 18.4296 59.28 18.96C59.28 19.4905 59.0693 19.9992 58.6942 20.3742C58.3191 20.7493 57.8104 20.96 57.28 20.96Z" fill="#228EBA"/>
<path d="M22.72 20.5866C21.6266 20.5866 20.72 19.68 20.72 18.5866V5.62665C20.72 4.53331 21.6266 3.62665 22.72 3.62665C23.8133 3.62665 24.72 4.53331 24.72 5.62665V18.5866C24.72 19.68 23.8133 20.5866 22.72 20.5866ZM41.28 19.3866C40.1866 19.3866 39.28 18.48 39.28 17.3866V5.62665C39.28 4.53331 40.1866 3.62665 41.28 3.62665C42.3733 3.62665 43.28 4.53331 43.28 5.62665V17.3866C43.28 18.5066 42.4 19.3866 41.28 19.3866ZM29.5733 48.3226C28.6133 48.3226 27.7066 48.0826 26.88 47.6293C25.0666 46.5626 24 44.4293 24 41.736V35.336C24 32.6427 25.0666 30.4827 26.9066 29.416C28.7466 28.3493 31.1466 28.5093 33.4666 29.8693L39.0133 33.0693C41.3333 34.4026 42.6933 36.4027 42.6933 38.536C42.6933 40.6693 41.3333 42.6693 38.9866 44.0026L33.44 47.2026C32.16 47.9493 30.8266 48.3226 29.5733 48.3226ZM29.6 32.7226C29.3333 32.7226 29.0933 32.776 28.9066 32.8827C28.3466 33.2027 28 34.1093 28 35.336V41.736C28 42.936 28.3466 43.8426 28.9066 44.1893C29.4666 44.5093 30.4266 44.3493 31.4666 43.736L37.0133 40.536C38.0533 39.9227 38.6933 39.176 38.6933 38.536C38.6933 37.896 38.08 37.1493 37.0133 36.536L31.4666 33.336C30.7733 32.936 30.1066 32.7226 29.6 32.7226Z" fill="#228EBA"/>
</svg>
